<svg width="100" height="47" viewBox="0 0 100 47" fill="none" xmlns="http://www.w3.org/2000/svg">
<path fill-rule="evenodd" clip-rule="evenodd" d="M0.0119629 6.85132C0.0119629 3.39954 2.81018 0.601322 6.26196 0.601322H34.2881C37.7399 0.601322 40.5381 3.39954 40.5381 6.85132V25.3545C40.5381 28.8063 37.7399 31.6045 34.2881 31.6045H34.0467C33.3563 31.6045 32.7967 31.0449 32.7967 30.3545C32.7967 29.6641 33.3563 29.1045 34.0467 29.1045H34.2881C36.3592 29.1045 38.0381 27.4256 38.0381 25.3545V6.85132C38.0381 4.78025 36.3592 3.10132 34.2881 3.10132H6.26196C4.1909 3.10132 2.51196 4.78025 2.51196 6.85132V25.3545C2.51196 27.4256 4.1909 29.1045 6.26197 29.1045H19.9958C20.6862 29.1045 21.2458 29.6641 21.2458 30.3545C21.2458 31.0449 20.6862 31.6045 19.9958 31.6045H6.26197C2.81019 31.6045 0.0119629 28.8063 0.0119629 25.3545V6.85132Z" fill="white"/>
<path d="M5.67483 36.1615C5.91276 36.1615 6.13191 36.2241 6.33227 36.3493C6.53263 36.462 6.6829 36.6374 6.78308 36.8753L9.5443 43.1866L9.13105 43.3745L11.9486 36.8941C12.1615 36.3932 12.4934 36.1552 12.9442 36.1803C13.2572 36.1803 13.5077 36.2805 13.6955 36.4808C13.8959 36.6687 13.9961 36.9066 13.9961 37.1946C13.9961 37.2823 13.9773 37.3762 13.9397 37.4764C13.9147 37.5766 13.8834 37.6705 13.8458 37.7581L10.3332 45.4971C10.1329 45.9479 9.81353 46.1858 9.37524 46.2108C9.13731 46.2484 8.90565 46.2046 8.68024 46.0794C8.46736 45.9541 8.30457 45.76 8.19186 45.4971L4.69808 37.7581C4.67303 37.6955 4.64172 37.6141 4.60416 37.5139C4.57911 37.4138 4.56659 37.2948 4.56659 37.157C4.56659 36.9316 4.66677 36.7125 4.86713 36.4996C5.06749 36.2742 5.33672 36.1615 5.67483 36.1615Z" fill="white"/>
<path d="M19.5847 45.065C19.5847 45.3906 19.4782 45.6661 19.2654 45.8915C19.0525 46.1044 18.7832 46.2108 18.4577 46.2108C18.1321 46.2108 17.8628 46.1044 17.6499 45.8915C17.4371 45.6661 17.3306 45.3906 17.3306 45.065V37.3073C17.3306 36.9817 17.4371 36.7125 17.6499 36.4996C17.8628 36.2742 18.1321 36.1615 18.4577 36.1615C18.7832 36.1615 19.0525 36.2742 19.2654 36.4996C19.4782 36.7125 19.5847 36.9817 19.5847 37.3073V45.065Z" fill="white"/>
<path d="M24.0426 32.9574C24.2805 32.9574 24.4997 33.02 24.7 33.1452C24.9004 33.2579 25.0507 33.4332 25.1508 33.6712L27.9121 39.9825L27.4988 40.1704L30.3164 33.6899C30.5293 33.189 30.8611 32.9511 31.3119 32.9762C31.625 32.9762 31.8754 33.0763 32.0633 33.2767C32.2636 33.4645 32.3638 33.7025 32.3638 33.9905C32.3638 34.0781 32.345 34.1721 32.3075 34.2722C32.2824 34.3724 32.2511 34.4663 32.2136 34.554L28.701 42.2929C28.5006 42.7437 28.1813 42.9817 27.743 43.0067C27.5051 43.0443 27.2734 43.0004 27.048 42.8752C26.8351 42.75 26.6723 42.5559 26.5596 42.2929L23.0658 34.554C23.0408 34.4914 23.0095 34.41 22.9719 34.3098C22.9469 34.2096 22.9344 34.0907 22.9344 33.9529C22.9344 33.7275 23.0345 33.5084 23.2349 33.2955C23.4353 33.0701 23.7045 32.9574 24.0426 32.9574Z" fill="white"/>
<path d="M40.4717 46.3987C39.4073 46.3987 38.4806 46.1795 37.6917 45.7412C36.9153 45.2904 36.3142 44.6831 35.8884 43.9192C35.4752 43.1553 35.2686 42.2913 35.2686 41.3271C35.2686 40.2 35.494 39.2421 35.9448 38.4531C36.4081 37.6517 37.0092 37.0381 37.748 36.6123C38.4869 36.1866 39.2695 35.9737 40.096 35.9737C40.7346 35.9737 41.3357 36.1052 41.8992 36.3681C42.4753 36.6311 42.9824 36.9943 43.4207 37.4576C43.859 37.9084 44.2034 38.4343 44.4538 39.0354C44.7168 39.6365 44.8483 40.2752 44.8483 40.9514C44.8358 41.2519 44.7168 41.4961 44.4914 41.6839C44.266 41.8718 44.003 41.9657 43.7025 41.9657H36.5271L35.9636 40.0873H42.8572L42.444 40.463V39.9558C42.4189 39.5927 42.2874 39.2671 42.0495 38.9791C41.8241 38.6911 41.5361 38.4657 41.1855 38.3029C40.8474 38.1275 40.4842 38.0399 40.096 38.0399C39.7203 38.0399 39.3697 38.09 39.0441 38.1902C38.7185 38.2903 38.4368 38.4594 38.1988 38.6973C37.9609 38.9352 37.7731 39.2546 37.6353 39.6553C37.4976 40.056 37.4287 40.5632 37.4287 41.1768C37.4287 41.853 37.5664 42.429 37.8419 42.9049C38.13 43.3682 38.4931 43.7251 38.9314 43.9756C39.3822 44.2135 39.8581 44.3325 40.359 44.3325C40.8223 44.3325 41.1917 44.2949 41.4672 44.2198C41.7427 44.1446 41.9619 44.057 42.1247 43.9568C42.3 43.8441 42.4565 43.7502 42.5942 43.675C42.8197 43.5623 43.0325 43.506 43.2329 43.506C43.5084 43.506 43.7338 43.5999 43.9091 43.7877C44.097 43.9756 44.1909 44.1947 44.1909 44.4452C44.1909 44.7833 44.0156 45.0901 43.6649 45.3656C43.3393 45.6411 42.8823 45.8853 42.2937 46.0981C41.7051 46.2985 41.0978 46.3987 40.4717 46.3987ZM40.4341 33.3064L38.9878 34.5085C38.825 34.6463 38.6872 34.759 38.5745 34.8466C38.4743 34.9218 38.3053 34.9593 38.0673 34.9593C37.9046 34.9593 37.7668 34.9155 37.6541 34.8279C37.5539 34.7277 37.5038 34.615 37.5038 34.4897C37.5038 34.3896 37.5164 34.3019 37.5414 34.2268C37.5664 34.1391 37.6291 34.0327 37.7292 33.9075L38.6496 32.7429C38.9377 32.3797 39.3196 32.1981 39.7955 32.1981H40.4717C40.7221 32.1981 40.9162 32.2357 41.054 32.3108C41.2042 32.386 41.3483 32.53 41.486 32.7429L42.3125 33.9075C42.4127 34.0327 42.4753 34.1391 42.5003 34.2268C42.5254 34.3019 42.5379 34.3896 42.5379 34.4897C42.5379 34.615 42.4878 34.7277 42.3876 34.8279C42.2874 34.9155 42.1497 34.9593 41.9744 34.9593C41.7365 34.9593 41.5674 34.9218 41.4672 34.8466C41.367 34.759 41.2293 34.6463 41.054 34.5085L39.4761 33.1185L40.4341 33.3064Z" fill="white"/>
<path d="M53.8804 35.9737C54.807 35.9737 55.5083 36.1678 55.9842 36.556C56.4725 36.9442 56.8044 37.4638 56.9797 38.115C57.1675 38.7537 57.2615 39.4675 57.2615 40.2564V45.065C57.2615 45.3906 57.155 45.6661 56.9421 45.8915C56.7293 46.1044 56.46 46.2108 56.1344 46.2108C55.8088 46.2108 55.5396 46.1044 55.3267 45.8915C55.1138 45.6661 55.0074 45.3906 55.0074 45.065V40.2564C55.0074 39.8431 54.951 39.4737 54.8383 39.1481C54.7382 38.81 54.5503 38.5408 54.2748 38.3404C53.9993 38.1401 53.6049 38.0399 53.0915 38.0399C52.5906 38.0399 52.1648 38.1401 51.8142 38.3404C51.4761 38.5408 51.2131 38.81 51.0252 39.1481C50.8499 39.4737 50.7623 39.8431 50.7623 40.2564V45.065C50.7623 45.3906 50.6558 45.6661 50.4429 45.8915C50.2301 46.1044 49.9608 46.2108 49.6352 46.2108C49.3097 46.2108 49.0404 46.1044 48.8275 45.8915C48.6147 45.6661 48.5082 45.3906 48.5082 45.065V37.3073C48.5082 36.9817 48.6147 36.7125 48.8275 36.4996C49.0404 36.2742 49.3097 36.1615 49.6352 36.1615C49.9608 36.1615 50.2301 36.2742 50.4429 36.4996C50.6558 36.7125 50.7623 36.9817 50.7623 37.3073V38.115L50.4805 38.0587C50.5932 37.8458 50.756 37.6204 50.9689 37.3825C51.1818 37.132 51.4322 36.9003 51.7202 36.6875C52.0083 36.4746 52.3338 36.3055 52.697 36.1803C53.0602 36.0425 53.4546 35.9737 53.8804 35.9737Z" fill="white"/>
<path d="M65.8589 35.9737C66.5726 35.9737 67.1925 36.0488 67.7185 36.1991C68.2569 36.3493 68.6702 36.5622 68.9582 36.8377C69.2587 37.1007 69.409 37.42 69.409 37.7957C69.409 38.0461 69.3339 38.2841 69.1836 38.5095C69.0333 38.7224 68.8142 38.8288 68.5262 38.8288C68.3258 38.8288 68.1567 38.8038 68.019 38.7537C67.8938 38.6911 67.7811 38.6159 67.6809 38.5283C67.5807 38.4406 67.4617 38.3592 67.324 38.2841C67.1988 38.2089 67.0047 38.1526 66.7417 38.115C66.4912 38.0649 66.3034 38.0399 66.1782 38.0399C65.5395 38.0399 64.9948 38.1776 64.544 38.4531C64.1057 38.7286 63.7676 39.1043 63.5297 39.5802C63.2917 40.0435 63.1728 40.582 63.1728 41.1956C63.1728 41.7966 63.2917 42.3351 63.5297 42.811C63.7801 43.2743 64.1182 43.6437 64.544 43.9192C64.9823 44.1947 65.4832 44.3325 66.0467 44.3325C66.3598 44.3325 66.629 44.3137 66.8544 44.2761C67.0798 44.2385 67.2676 44.1822 67.4179 44.1071C67.5932 44.0069 67.7498 43.9004 67.8875 43.7877C68.0253 43.675 68.2319 43.6187 68.5074 43.6187C68.833 43.6187 69.0834 43.7251 69.2587 43.938C69.434 44.1384 69.5217 44.3888 69.5217 44.6894C69.5217 45.0024 69.3464 45.2904 68.9958 45.5534C68.6451 45.8039 68.1818 46.0105 67.6058 46.1733C67.0422 46.3235 66.4286 46.3987 65.7649 46.3987C64.7757 46.3987 63.9179 46.1733 63.1916 45.7225C62.4653 45.2591 61.9017 44.633 61.501 43.8441C61.1128 43.0552 60.9187 42.1723 60.9187 41.1956C60.9187 40.1687 61.1253 39.2671 61.5386 38.4907C61.9644 37.7018 62.5466 37.0882 63.2855 36.6499C64.0368 36.1991 64.8946 35.9737 65.8589 35.9737Z" fill="white"/>
<path d="M74.9602 45.065C74.9602 45.3906 74.8538 45.6661 74.6409 45.8915C74.428 46.1044 74.1588 46.2108 73.8332 46.2108C73.5076 46.2108 73.2383 46.1044 73.0255 45.8915C72.8126 45.6661 72.7061 45.3906 72.7061 45.065V37.3073C72.7061 36.9817 72.8126 36.7125 73.0255 36.4996C73.2383 36.2742 73.5076 36.1615 73.8332 36.1615C74.1588 36.1615 74.428 36.2742 74.6409 36.4996C74.8538 36.7125 74.9602 36.9817 74.9602 37.3073V45.065ZM73.8144 34.9406C73.3886 34.9406 73.0881 34.8717 72.9128 34.7339C72.7374 34.5962 72.6498 34.352 72.6498 34.0014V33.6445C72.6498 33.2813 72.7437 33.0371 72.9315 32.9119C73.1319 32.7742 73.4325 32.7053 73.8332 32.7053C74.2715 32.7053 74.5783 32.7742 74.7536 32.9119C74.9289 33.0497 75.0165 33.2938 75.0165 33.6445V34.0014C75.0165 34.3645 74.9226 34.615 74.7348 34.7527C74.547 34.8779 74.2402 34.9406 73.8144 34.9406Z" fill="white"/>
<path d="M87.1946 35.9737C87.5202 35.9737 87.7894 36.0801 88.0023 36.293C88.2152 36.5059 88.3216 36.7814 88.3216 37.1195V45.065C88.3216 45.3906 88.2152 45.6661 88.0023 45.8915C87.7894 46.1044 87.5202 46.2108 87.1946 46.2108C86.869 46.2108 86.5998 46.1044 86.3869 45.8915C86.174 45.6661 86.0676 45.3906 86.0676 45.065V44.1446L86.4808 44.3137C86.4808 44.4765 86.3932 44.6768 86.2179 44.9148C86.0425 45.1402 85.8046 45.3656 85.5041 45.591C85.2035 45.8164 84.8466 46.0105 84.4334 46.1733C84.0327 46.3235 83.5944 46.3987 83.1185 46.3987C82.2545 46.3987 81.4718 46.1795 80.7706 45.7412C80.0693 45.2904 79.512 44.6768 79.0988 43.9004C78.6981 43.1115 78.4977 42.2099 78.4977 41.1956C78.4977 40.1687 78.6981 39.2671 79.0988 38.4907C79.512 37.7018 80.063 37.0882 80.7518 36.6499C81.4405 36.1991 82.2044 35.9737 83.0434 35.9737C83.5819 35.9737 84.0765 36.0551 84.5273 36.2179C84.9781 36.3806 85.3663 36.5873 85.6919 36.8377C86.03 37.0882 86.2867 37.3449 86.4621 37.6079C86.6499 37.8583 86.7438 38.0712 86.7438 38.2465L86.0676 38.4907V37.1195C86.0676 36.7939 86.174 36.5247 86.3869 36.3118C86.5998 36.0864 86.869 35.9737 87.1946 35.9737ZM83.4003 44.3325C83.9513 44.3325 84.4334 44.1947 84.8466 43.9192C85.2599 43.6437 85.5792 43.268 85.8046 42.7922C86.0425 42.3163 86.1615 41.7841 86.1615 41.1956C86.1615 40.5945 86.0425 40.056 85.8046 39.5802C85.5792 39.1043 85.2599 38.7286 84.8466 38.4531C84.4334 38.1776 83.9513 38.0399 83.4003 38.0399C82.8618 38.0399 82.386 38.1776 81.9727 38.4531C81.5595 38.7286 81.2339 39.1043 80.996 39.5802C80.7706 40.056 80.6579 40.5945 80.6579 41.1956C80.6579 41.7841 80.7706 42.3163 80.996 42.7922C81.2339 43.268 81.5595 43.6437 81.9727 43.9192C82.386 44.1947 82.8618 44.3325 83.4003 44.3325Z" fill="white"/>
<path d="M91.8705 44.6518C91.7452 44.4765 91.6889 44.2511 91.7014 43.9756C91.7139 43.7001 91.8767 43.4621 92.1898 43.2618C92.3902 43.1366 92.603 43.0865 92.8284 43.1115C93.0538 43.124 93.273 43.2367 93.4859 43.4496C93.849 43.8128 94.231 44.0945 94.6317 44.2949C95.0324 44.4953 95.5333 44.5954 96.1344 44.5954C96.3222 44.5829 96.5288 44.5579 96.7542 44.5203C96.9797 44.4702 97.1738 44.37 97.3365 44.2198C97.5119 44.057 97.5995 43.8128 97.5995 43.4872C97.5995 43.2117 97.5056 42.9925 97.3178 42.8298C97.1299 42.667 96.8795 42.5292 96.5664 42.4165C96.2659 42.3038 95.9278 42.1974 95.5521 42.0972C95.1639 41.9845 94.7632 41.8593 94.3499 41.7215C93.9492 41.5838 93.5798 41.4084 93.2417 41.1956C92.9036 40.9702 92.6281 40.6759 92.4152 40.3127C92.2023 39.9496 92.0959 39.4925 92.0959 38.9415C92.0959 38.3154 92.2712 37.7832 92.6218 37.3449C92.9724 36.9066 93.4232 36.5685 93.9742 36.3306C94.5378 36.0926 95.1263 35.9737 95.7399 35.9737C96.1281 35.9737 96.5351 36.0238 96.9609 36.1239C97.3866 36.2116 97.7936 36.3619 98.1818 36.5747C98.57 36.7751 98.8956 37.0443 99.1586 37.3825C99.2963 37.5703 99.3777 37.7957 99.4028 38.0587C99.4278 38.3216 99.3088 38.5596 99.0459 38.7725C98.858 38.9227 98.6389 38.9916 98.3884 38.9791C98.138 38.954 97.9314 38.8664 97.7686 38.7161C97.5557 38.4406 97.2677 38.2215 96.9045 38.0587C96.5539 37.8959 96.1469 37.8145 95.6836 37.8145C95.4957 37.8145 95.2891 37.8395 95.0637 37.8896C94.8508 37.9272 94.663 38.0211 94.5002 38.1714C94.3374 38.3091 94.256 38.5345 94.256 38.8476C94.256 39.1356 94.3499 39.3673 94.5378 39.5426C94.7256 39.7054 94.9761 39.8431 95.2891 39.9558C95.6147 40.056 95.9591 40.1562 96.3222 40.2564C96.6979 40.3566 97.0798 40.4755 97.468 40.6133C97.8562 40.751 98.2131 40.9326 98.5387 41.158C98.8643 41.3834 99.1273 41.6777 99.3276 42.0408C99.528 42.3915 99.6282 42.8423 99.6282 43.3933C99.6282 44.0319 99.4403 44.5767 99.0647 45.0275C98.689 45.4783 98.2194 45.8226 97.6559 46.0606C97.0924 46.286 96.5163 46.3987 95.9278 46.3987C95.1889 46.3987 94.4501 46.2735 93.7113 46.023C92.9724 45.76 92.3588 45.303 91.8705 44.6518Z" fill="white"/>
<path d="M6.54759 11.7445C6.40568 11.7445 6.27898 11.7015 6.16749 11.6153C6.05599 11.5241 6.00024 11.4126 6.00024 11.2808V6.88688C6.00024 6.75511 6.04332 6.64615 6.12948 6.56C6.2207 6.46877 6.3322 6.42316 6.46396 6.42316H8.65334C8.91687 6.42316 9.16267 6.49411 9.39073 6.63602C9.62386 6.77285 9.81137 6.96544 9.95327 7.21377C10.0952 7.45703 10.1661 7.7383 10.1661 8.05759C10.1661 8.25017 10.1256 8.43769 10.0445 8.62013C9.96848 8.80258 9.86205 8.96729 9.72521 9.11426C9.59345 9.26123 9.44394 9.37526 9.2767 9.45635L9.2843 9.28151C9.4262 9.35752 9.54277 9.44875 9.63399 9.55518C9.73028 9.65654 9.80377 9.76803 9.85445 9.88966C9.9102 10.0062 9.94314 10.1329 9.95327 10.2698C9.97355 10.3965 9.98622 10.508 9.99128 10.6043C10.0014 10.7005 10.0166 10.7816 10.0369 10.8475C10.0622 10.9134 10.1078 10.9641 10.1737 10.9996C10.2852 11.0654 10.3536 11.1617 10.379 11.2884C10.4094 11.4101 10.3815 11.519 10.2954 11.6153C10.2396 11.6812 10.1687 11.7243 10.0825 11.7445C9.99635 11.7598 9.9102 11.7598 9.82404 11.7445C9.73789 11.7243 9.66693 11.6989 9.61119 11.6685C9.52503 11.6178 9.43887 11.5444 9.35272 11.4481C9.26656 11.3467 9.19561 11.2124 9.13986 11.0452C9.08918 10.8779 9.06384 10.6625 9.06384 10.399C9.06384 10.3128 9.04864 10.2343 9.01823 10.1633C8.98782 10.0873 8.94475 10.024 8.889 9.97329C8.83325 9.91754 8.7623 9.877 8.67614 9.85166C8.58999 9.82125 8.48863 9.80604 8.37206 9.80604H6.83646L6.95049 9.6312V11.2808C6.95049 11.4126 6.91502 11.5241 6.84406 11.6153C6.77311 11.7015 6.67429 11.7445 6.54759 11.7445ZM6.84406 9.02304H8.61533C8.70655 9.02304 8.79524 8.9825 8.8814 8.90141C8.96755 8.81525 9.0385 8.70122 9.09425 8.55932C9.15 8.41235 9.17787 8.2527 9.17787 8.08039C9.17787 7.8574 9.11706 7.67242 8.99543 7.52545C8.87886 7.37341 8.75216 7.29739 8.61533 7.29739H6.85927L6.95049 7.05412V9.20549L6.84406 9.02304Z" fill="white"/>
<path d="M12.3671 6.42316H14.9137C15.0455 6.42316 15.1545 6.46624 15.2406 6.55239C15.3319 6.63348 15.3775 6.73991 15.3775 6.87168C15.3775 6.99838 15.3319 7.10227 15.2406 7.18336C15.1545 7.25938 15.0455 7.29739 14.9137 7.29739H12.7852L12.8536 7.16815V8.65054L12.7928 8.58973H14.5717C14.7034 8.58973 14.8124 8.6328 14.8985 8.71896C14.9898 8.80005 15.0354 8.90647 15.0354 9.03824C15.0354 9.16494 14.9898 9.26884 14.8985 9.34992C14.8124 9.42594 14.7034 9.46395 14.5717 9.46395H12.8156L12.8536 9.40314V10.9387L12.7928 10.8703H14.9137C15.0455 10.8703 15.1545 10.9159 15.2406 11.0072C15.3319 11.0933 15.3775 11.1947 15.3775 11.3112C15.3775 11.4379 15.3319 11.5418 15.2406 11.6229C15.1545 11.704 15.0455 11.7445 14.9137 11.7445H12.3671C12.2353 11.7445 12.1238 11.7015 12.0326 11.6153C11.9464 11.5241 11.9034 11.4126 11.9034 11.2808V6.88688C11.9034 6.75511 11.9464 6.64615 12.0326 6.56C12.1238 6.46877 12.2353 6.42316 12.3671 6.42316Z" fill="white"/>
<path d="M9.8849 13.408C10.0116 13.408 10.1206 13.4511 10.2118 13.5372C10.3081 13.6183 10.3562 13.7222 10.3562 13.8489C10.3562 13.9148 10.341 13.9832 10.3106 14.0542L8.43293 18.4481C8.38731 18.5495 8.32143 18.6255 8.23528 18.6762C8.15419 18.7218 8.07057 18.7446 7.98441 18.7446C7.90332 18.7395 7.82477 18.7142 7.74875 18.6686C7.67273 18.6179 7.61445 18.5469 7.5739 18.4557L5.69621 14.0466C5.68101 14.0161 5.67087 13.9857 5.66581 13.9553C5.66074 13.9199 5.6582 13.8869 5.6582 13.8565C5.6582 13.7095 5.71142 13.598 5.81784 13.522C5.92427 13.4409 6.02563 13.4004 6.12192 13.4004C6.31451 13.4004 6.45388 13.4992 6.54003 13.6969L8.20487 17.6119L7.9388 17.6195L9.4668 13.6969C9.55295 13.5043 9.69232 13.408 9.8849 13.408Z" fill="white"/>
<path d="M12.7868 18.2809C12.7868 18.4126 12.7387 18.5241 12.6424 18.6153C12.5461 18.7015 12.4346 18.7446 12.3079 18.7446C12.166 18.7446 12.052 18.7015 11.9658 18.6153C11.8797 18.5241 11.8366 18.4126 11.8366 18.2809V13.8869C11.8366 13.7551 11.8822 13.6462 11.9734 13.56C12.0647 13.4688 12.1812 13.4232 12.3231 13.4232C12.4448 13.4232 12.5512 13.4688 12.6424 13.56C12.7387 13.6462 12.7868 13.7551 12.7868 13.8869V18.2809Z" fill="white"/>
<path d="M16.3247 18.8206C15.97 18.8206 15.6507 18.7775 15.3669 18.6914C15.0831 18.6001 14.8119 18.443 14.5535 18.22C14.4876 18.1643 14.4369 18.1009 14.4014 18.03C14.366 17.959 14.3482 17.8881 14.3482 17.8171C14.3482 17.7006 14.3888 17.5992 14.4698 17.5131C14.556 17.4218 14.6624 17.3762 14.7891 17.3762C14.8854 17.3762 14.9716 17.4066 15.0476 17.4674C15.2402 17.6246 15.4302 17.7437 15.6177 17.8247C15.8103 17.9058 16.046 17.9464 16.3247 17.9464C16.5122 17.9464 16.6846 17.9185 16.8417 17.8627C16.9988 17.8019 17.1255 17.7234 17.2218 17.6271C17.3181 17.5257 17.3662 17.4117 17.3662 17.285C17.3662 17.133 17.3206 17.0037 17.2294 16.8973C17.1381 16.7909 16.9988 16.7022 16.8113 16.6312C16.6237 16.5552 16.3855 16.4969 16.0967 16.4564C15.823 16.4158 15.5823 16.355 15.3745 16.2739C15.1667 16.1878 14.9919 16.0814 14.8499 15.9547C14.7131 15.8229 14.6092 15.6708 14.5383 15.4985C14.4673 15.3212 14.4318 15.1235 14.4318 14.9056C14.4318 14.5762 14.5155 14.2949 14.6827 14.0618C14.855 13.8286 15.0856 13.6513 15.3745 13.5296C15.6634 13.408 15.9826 13.3472 16.3323 13.3472C16.6618 13.3472 16.9658 13.3979 17.2446 13.4992C17.5284 13.5955 17.759 13.7197 17.9364 13.8717C18.0833 13.9883 18.1568 14.1226 18.1568 14.2746C18.1568 14.3861 18.1137 14.4875 18.0276 14.5787C17.9414 14.6699 17.8401 14.7155 17.7235 14.7155C17.6475 14.7155 17.5791 14.6927 17.5182 14.6471C17.4372 14.5762 17.3282 14.5103 17.1914 14.4495C17.0545 14.3836 16.9101 14.3304 16.758 14.2898C16.606 14.2442 16.4641 14.2214 16.3323 14.2214C16.1144 14.2214 15.9294 14.2493 15.7774 14.305C15.6304 14.3608 15.5189 14.4368 15.4429 14.5331C15.3669 14.6294 15.3289 14.7409 15.3289 14.8676C15.3289 15.0196 15.372 15.1463 15.4581 15.2477C15.5493 15.344 15.6786 15.4225 15.8458 15.4833C16.0131 15.5391 16.2132 15.5898 16.4464 15.6354C16.7504 15.6911 17.0165 15.757 17.2446 15.833C17.4777 15.909 17.6703 16.0079 17.8223 16.1295C17.9744 16.2461 18.0884 16.3956 18.1644 16.578C18.2404 16.7554 18.2784 16.9733 18.2784 17.2318C18.2784 17.5612 18.1872 17.845 18.0048 18.0832C17.8223 18.3214 17.5816 18.5039 17.2826 18.6306C16.9886 18.7572 16.6694 18.8206 16.3247 18.8206Z" fill="white"/>
<path d="M7.80196 25.7446C7.66006 25.7446 7.54349 25.7015 7.45227 25.6153C7.36105 25.5241 7.31544 25.4126 7.31544 25.2809V20.8717H8.30369V25.2809C8.30369 25.4126 8.25555 25.5241 8.15926 25.6153C8.06803 25.7015 7.94893 25.7446 7.80196 25.7446ZM6.12192 21.2974C5.99016 21.2974 5.87866 21.2569 5.78744 21.1758C5.70128 21.0947 5.6582 20.9883 5.6582 20.8565C5.6582 20.7247 5.70128 20.6208 5.78744 20.5448C5.87866 20.4637 5.99016 20.4232 6.12192 20.4232H9.4972C9.62897 20.4232 9.73793 20.4637 9.82409 20.5448C9.91531 20.6259 9.96093 20.7323 9.96093 20.8641C9.96093 20.9959 9.91531 21.1023 9.82409 21.1834C9.73793 21.2594 9.62897 21.2974 9.4972 21.2974H6.12192Z" fill="white"/>
<path d="M13.0182 21.6167L11.3762 25.4785C11.3407 25.5748 11.285 25.6508 11.209 25.7066C11.138 25.7572 11.0595 25.7826 10.9733 25.7826C10.8365 25.7826 10.7351 25.7446 10.6692 25.6686C10.6033 25.5925 10.5704 25.4988 10.5704 25.3873C10.5704 25.3417 10.578 25.2935 10.5932 25.2428L12.4861 20.6969C12.5266 20.5955 12.5874 20.517 12.6685 20.4612C12.7547 20.4055 12.8459 20.3826 12.9422 20.3928C13.0334 20.3928 13.1171 20.4207 13.1931 20.4764C13.2742 20.5271 13.3324 20.6006 13.3679 20.6969L15.238 25.1516C15.2633 25.2175 15.276 25.2783 15.276 25.3341C15.276 25.4709 15.2304 25.5799 15.1392 25.661C15.053 25.742 14.9567 25.7826 14.8503 25.7826C14.7591 25.7826 14.6755 25.7547 14.5994 25.699C14.5285 25.6432 14.4727 25.5672 14.4322 25.4709L12.7978 21.6623L13.0182 21.6167ZM11.6119 24.5511L12.03 23.6768H14.0825L14.2269 24.5511H11.6119Z" fill="white"/>
</svg>
