<svg width="99" height="98" viewBox="0 0 99 98" fill="none" xmlns="http://www.w3.org/2000/svg">
<path d="M98.2302 50.927V47.1252C98.2302 46.645 97.8405 46.2547 97.361 46.2547H91.6999C91.5844 44.4895 91.3631 42.7548 91.0375 41.0555L96.5062 39.618C96.9713 39.4959 97.2488 39.0205 97.1269 38.5547L96.163 34.8782C96.0412 34.4124 95.5665 34.1346 95.1014 34.2566L89.6343 35.6942C89.0585 33.9659 88.3818 32.2859 87.596 30.6669L92.5017 27.8689C92.9187 27.6312 93.0647 27.0996 92.8273 26.682L90.9493 23.3781C90.712 22.9605 90.1812 22.8143 89.7642 23.052L84.8504 25.8548C83.7983 24.2615 82.6388 22.7485 81.3863 21.3174L85.3908 17.3068C85.7308 16.9663 85.7308 16.4154 85.3908 16.0749L82.7062 13.3861C82.3662 13.0456 81.8161 13.0456 81.4761 13.3861L77.4716 17.3967C76.1582 16.2435 74.779 15.1626 73.3276 14.1796L76.1758 9.29364C76.418 8.87764 76.2785 8.3444 75.8631 8.10187L72.5851 6.18411C72.1697 5.94158 71.6373 6.08131 71.3951 6.49731L68.5437 11.3865C66.8887 10.5577 65.1711 9.83813 63.399 9.231L64.8728 3.76523C64.9979 3.30104 64.7237 2.82241 64.2602 2.69713L60.5957 1.70612C60.1322 1.58084 59.6543 1.8555 59.5292 2.31968L58.057 7.78063C56.2656 7.42246 54.4326 7.18475 52.5674 7.06429V1.39453C52.5674 0.914285 52.1777 0.523987 51.6982 0.523987H47.9022C47.4227 0.523987 47.033 0.914285 47.033 1.39453V7.06429C45.2705 7.17993 43.5385 7.40158 41.8417 7.72763L40.4064 2.25061C40.2845 1.78483 39.8098 1.50696 39.3447 1.62903L35.6738 2.59433C35.2087 2.7164 34.9313 3.19182 35.0532 3.65761L36.4885 9.13302C34.7629 9.70964 33.0854 10.3874 31.4673 11.1745L28.6736 6.2612C28.4362 5.8436 27.9054 5.69744 27.4884 5.93515L24.1896 7.81597C23.7726 8.05368 23.6267 8.58532 23.864 9.00292L26.6625 13.9242C25.0716 14.9779 23.5609 16.1391 22.132 17.3935L18.1275 13.3829C17.7875 13.0424 17.2374 13.0424 16.8974 13.3829L14.2128 16.0733C13.8728 16.4138 13.8728 16.9647 14.2128 17.3052L18.2173 21.3158C17.0658 22.6312 15.9865 24.0125 15.0034 25.4661L10.1249 22.6136C9.70955 22.371 9.17712 22.5108 8.93496 22.9268L7.02011 26.2098C6.77795 26.6258 6.91747 27.159 7.33284 27.4015L12.2146 30.2573C11.387 31.9149 10.6686 33.6351 10.0624 35.4099L4.6049 33.9338C4.14143 33.8085 3.66352 34.0832 3.53843 34.5474L2.54893 38.2174C2.42384 38.6816 2.69808 39.1603 3.16155 39.2855L8.61421 40.76C8.25658 42.5541 8.01923 44.3899 7.89895 46.2579H2.23781C1.7583 46.2579 1.36859 46.6482 1.36859 47.1284V50.9302C1.36859 51.4105 1.7583 51.8008 2.23781 51.8008H7.89895C8.01442 53.5659 8.23573 55.3006 8.56129 56.9999L3.09259 58.4374C2.62751 58.5595 2.35007 59.0349 2.47195 59.5007L3.43579 63.1772C3.55767 63.643 4.03237 63.9209 4.49745 63.7988L9.96775 62.3597C10.5435 64.0879 11.2203 65.768 12.0061 67.387L7.1003 70.1849C6.68333 70.4226 6.53739 70.9543 6.77474 71.3719L8.6527 74.6757C8.89005 75.0933 9.42088 75.2395 9.83785 75.0018L14.7517 72.199C15.8037 73.7924 16.9632 75.3054 18.2157 76.7365L14.2112 80.747C13.8712 81.0875 13.8712 81.6385 14.2112 81.979L16.8958 84.6677C17.2358 85.0082 17.7859 85.0082 18.1259 84.6677L22.1304 80.6571C23.4438 81.8103 24.823 82.8913 26.2744 83.8742L23.4262 88.7602C23.184 89.1762 23.3236 89.7094 23.7389 89.952L27.0169 91.8697C27.4323 92.1123 27.9647 91.9725 28.2069 91.5565L31.0583 86.6674C32.7134 87.4961 34.4309 88.2157 36.2031 88.8228L34.7292 94.2886C34.6041 94.7528 34.8784 95.2314 35.3419 95.3567L39.0064 96.3477C39.4698 96.473 39.9477 96.1983 40.0728 95.7342L41.3382 91.0442C41.4552 90.6089 41.885 90.3423 42.3293 90.421C43.6106 90.6507 44.9145 90.8193 46.2343 90.9301C46.6866 90.9687 47.0378 91.3413 47.0378 91.7958V96.6593C47.0378 97.1395 47.4275 97.5298 47.907 97.5298H51.703C52.1825 97.5298 52.5723 97.1395 52.5723 96.6593V91.7958C52.5723 91.3413 52.9235 90.9687 53.3757 90.9301C54.5913 90.8273 55.7909 90.6747 56.9745 90.4708C57.4219 90.3937 57.8533 90.6651 57.9688 91.1052L59.2004 95.8048C59.3223 96.2706 59.797 96.5485 60.2621 96.4264L63.933 95.4611C64.3981 95.339 64.6755 94.8636 64.5537 94.3978L63.1183 88.9224C64.8439 88.3458 66.5214 87.668 68.1396 86.881L71.3631 92.5507L75.4173 90.2395C75.8342 90.0018 75.9802 89.4701 75.7428 89.0525L72.9443 84.1312C74.5352 83.0776 76.0459 81.9163 77.4749 80.6619L81.4794 84.6725C81.8193 85.013 82.3694 85.013 82.7094 84.6725L85.394 81.9838C85.734 81.6433 85.734 81.0924 85.394 80.7519L81.3895 76.7413C82.541 75.4258 83.6203 74.0445 84.6034 72.5909L89.4819 75.4435C89.8973 75.686 90.4297 75.5463 90.6719 75.1303L92.5867 71.8473C92.8289 71.4313 92.6894 70.898 92.274 70.6555L87.3923 67.7998C88.2198 66.1422 88.9383 64.422 89.5445 62.6472L95.0019 64.1232C95.4654 64.2485 95.9433 63.9739 96.0684 63.5097L97.0579 59.8396C97.183 59.3754 96.9088 58.8968 96.4453 58.7715L90.9926 57.2971C91.3503 55.503 91.586 53.6671 91.7079 51.7992H97.369C97.8421 51.7976 98.2302 51.4089 98.2302 50.927Z" fill="#36AA3B"/>
<path d="M49.8301 13.7701C30.3865 13.754 14.6107 29.5217 14.5947 48.9933C14.5786 68.4664 30.3272 84.2662 49.7708 84.2823C69.2143 84.2984 84.9901 68.5258 85.0062 49.0527C85.0222 29.5812 69.2736 13.7862 49.8301 13.7701ZM49.8285 16.1263C37.4542 16.1151 26.6435 22.8144 20.8219 32.7951C26.087 22.0852 37.1013 14.7225 49.8301 14.7338C62.5316 14.745 73.5091 22.0981 78.7741 32.7823C72.9574 22.824 62.1755 16.136 49.8285 16.1263Z" fill="#FFF212"/>
<path d="M78.7739 32.7824C72.9572 22.8242 62.1753 16.1361 49.8283 16.1265C37.4539 16.1153 26.6432 22.8146 20.8217 32.7953C26.0867 22.0854 37.1011 14.7227 49.8299 14.734C62.5314 14.7452 73.5089 22.0982 78.7739 32.7824Z" fill="white"/>
<path d="M98.3076 48.2136C98.2675 48.1574 98.2178 48.0948 98.1729 48.0498C98.1328 48.0048 98.0879 47.9647 98.043 47.9261L97.9981 47.886C97.9131 47.8121 97.8073 47.7398 97.6934 47.6772C97.3053 47.4459 96.8499 47.3222 96.3655 47.3222H58.2242C57.2283 47.3222 56.3446 47.8571 55.9565 48.6136V42.2387C55.9565 41.8725 55.8779 41.4999 55.7095 41.1851L53.7402 37.2741C53.583 36.9705 53.312 36.7328 53.0025 36.6203V9.15496C53.0025 8.90119 52.9463 8.65384 52.8501 8.41613L52.6929 8.04992L52.5743 7.76884L52.3882 7.34L52.1124 6.69111L50.5824 3.07885C50.4413 2.76886 50.1318 2.55524 49.7886 2.55524C49.439 2.5729 49.1407 2.75761 49.0012 3.07885L47.1553 7.24363L46.8121 8.03225L46.6485 8.39364C46.5362 8.63617 46.4961 8.90119 46.4961 9.1662V36.6027C46.1642 36.7328 45.906 36.9689 45.736 37.2741L43.7778 41.1851C43.6094 41.5015 43.5309 41.8725 43.5309 42.2387V48.4947C43.4459 48.3373 43.3448 48.1847 43.2149 48.0498C42.7867 47.5872 42.1292 47.3222 41.4139 47.3222H3.05769C2.52846 47.3222 2.00565 47.4748 1.58387 47.7511C1.47161 47.8185 1.37057 47.8972 1.27916 47.9759C1.17171 48.0723 1.06587 48.1847 0.969643 48.3084C0.745121 48.6184 0.61522 48.9685 0.592768 49.3283C0.575127 49.7459 0.711443 50.1683 0.980869 50.5233L1.09954 50.6582C1.15567 50.7209 1.22303 50.7771 1.27916 50.8269C1.37538 50.9056 1.48123 50.9794 1.58387 51.0405C1.96716 51.2653 2.42262 51.3842 2.90694 51.3842H3.59333C3.46985 51.5641 3.37362 51.7681 3.31749 51.9753C3.29504 52.0716 3.2774 52.1776 3.26617 52.2515C3.25495 52.3029 3.25495 52.3367 3.25495 52.3479C3.24853 52.433 3.25495 52.5117 3.26136 52.6017C3.30146 53.0016 3.46985 53.3791 3.76173 53.6955C3.88521 53.8191 4.01992 53.9316 4.14502 54.0119C4.56198 54.2994 5.06716 54.452 5.61403 54.452L7.04936 54.4472C6.84729 54.7395 6.73984 55.0607 6.72861 55.3884C6.70616 55.8782 6.88578 56.3521 7.23539 56.7247C7.47755 56.9785 7.7983 57.176 8.15753 57.2933C8.25857 57.3334 8.3596 57.3559 8.47347 57.3784C8.58091 57.4073 8.68676 57.4186 8.77817 57.4234C8.86798 57.4346 8.95298 57.4346 9.04279 57.4346H9.71795C9.51589 57.7334 9.39721 58.0658 9.37476 58.4047C9.35231 58.8898 9.53192 59.3636 9.88635 59.7459C10.3194 60.202 10.9785 60.4671 11.6873 60.4671H14.8226C14.6093 60.7658 14.4906 61.1095 14.473 61.4597C14.4441 61.9383 14.6302 62.4234 14.9798 62.796C15.424 63.2586 16.0831 63.5172 16.7808 63.5172H21.0354C20.8494 63.8047 20.7371 64.1259 20.7195 64.4648C20.697 64.9386 20.8767 65.4237 21.2263 65.8011C21.6705 66.2573 22.3296 66.5175 23.0321 66.5175H28.5858C28.3837 66.8098 28.265 67.1487 28.249 67.4812C28.2201 67.9662 28.4013 68.44 28.7493 68.8175C29.1888 69.2849 29.8463 69.5499 30.5551 69.5499H36.9091C36.707 69.8422 36.5932 70.1699 36.5771 70.5136C36.5547 71.0147 36.7343 71.4885 37.0839 71.8499C37.5345 72.3125 38.1921 72.5775 38.8897 72.5775H43.5325V76.185L41.1237 83.326L41.0339 83.591L40.9489 83.8496L37.2186 94.9241C37.1288 95.1714 37.2523 95.4477 37.4993 95.5489L39.4574 96.315L39.7493 96.4226L39.9353 96.4901C39.9626 96.5013 39.9979 96.5126 40.0251 96.5238C40.0652 96.5302 40.0989 96.5351 40.1213 96.5351C40.2897 96.5351 40.4421 96.4499 40.5383 96.3102L43.7682 91.2942L43.9254 91.0404L44.0938 90.7818L44.3584 90.3706H55.1691L55.4048 90.7432L55.5732 90.997L55.7368 91.2556L58.5962 95.7143L58.9843 96.3118C59.0357 96.3857 59.103 96.4467 59.1816 96.4804C59.2554 96.5206 59.3275 96.5367 59.3949 96.5367C59.4687 96.5367 59.5248 96.519 59.5857 96.4917L59.6643 96.4628L62.017 95.5505C62.2704 95.4493 62.3939 95.173 62.3089 94.9257L58.5562 83.795L58.4712 83.5299L58.3813 83.2649L55.9565 76.0677V72.5791H60.4357C61.7411 72.5791 62.8445 71.6716 62.9006 70.5618C62.9183 70.2068 62.8269 69.8567 62.636 69.5531H67.2227C68.4094 69.5531 69.4567 68.7982 69.6475 67.812C69.67 67.7446 69.6812 67.6884 69.6924 67.6257L69.71 67.5294C69.7277 67.1744 69.6427 66.8355 69.4567 66.5207H75.5957C75.9902 66.5207 76.3831 66.4356 76.7215 66.2733C77.549 65.9521 78.112 65.247 78.1569 64.476C78.1633 64.1323 78.0783 63.7998 77.9035 63.5011H81.9272C82.0395 63.4947 82.1517 63.4898 82.2367 63.4674C82.3153 63.4609 82.3939 63.4449 82.4677 63.4272C83.6095 63.2746 84.4707 62.4523 84.522 61.4709C84.5381 61.1159 84.4435 60.7658 84.2638 60.4735H87.59C88.8954 60.4735 89.9987 59.5724 90.0549 58.4674C90.0725 58.1012 89.9763 57.751 89.7903 57.441H90.7637C90.8712 57.4346 90.9722 57.4298 91.062 57.4121C92.2039 57.2483 93.0651 56.4195 93.11 55.4333C93.1324 55.0832 93.0362 54.7282 92.8566 54.4247H93.9535C94.6463 54.4247 95.3039 54.1773 95.7545 53.7485C96.1154 53.4497 96.3623 53.0498 96.4473 52.6322C96.4698 52.5422 96.4762 52.4635 96.481 52.3736V52.311C96.481 52.2098 96.4746 52.1134 96.4634 52.001C96.4233 51.7922 96.3447 51.5834 96.2388 51.3922C96.7681 51.3858 97.2861 51.2348 97.6966 50.9698C97.8089 50.9024 97.9099 50.8237 98.0013 50.7337C98.1136 50.6373 98.2098 50.5313 98.3109 50.4012C98.5354 50.0912 98.6605 49.7411 98.6765 49.3926C98.6957 48.9621 98.561 48.5461 98.3076 48.2136ZM43.5309 89.8181L42.8493 90.8717L42.6921 91.1191L40.7564 94.1178L40.2609 94.8903V94.8968L39.9241 95.4156L38.3091 94.7892L42.0057 83.8158L42.0955 83.5508L43.5309 79.3009V89.8181ZM43.5309 71.5512H38.8881C38.4663 71.5512 38.067 71.3986 37.8136 71.1448C37.65 70.9762 37.5714 70.7722 37.5827 70.5538C37.6051 70.0751 38.1007 69.6415 38.747 69.5338C38.7758 69.5274 38.8031 69.5162 38.832 69.5049H43.5309V71.5512ZM43.5309 68.485H30.5311C30.0917 68.485 29.71 68.3389 29.4726 68.0851C29.3267 67.9213 29.2529 67.7237 29.2706 67.5277C29.3106 66.9592 29.9858 66.4902 30.7668 66.4902H39.2425C39.5183 66.4902 39.7541 66.2541 39.7541 65.9666C39.7541 65.6967 39.5183 65.4702 39.2361 65.4702L23.0289 65.504C22.6071 65.504 22.2078 65.3514 21.9592 65.0976C21.7956 64.9225 21.7122 64.7137 21.7234 64.5001C21.7411 64.06 22.1741 63.644 22.7081 63.5139H36.9059C37.1865 63.5139 37.4127 63.2891 37.4127 63.0016C37.4127 62.7253 37.1881 62.5005 36.9059 62.5005L16.7984 62.478C16.3654 62.478 15.9773 62.3254 15.7287 62.0555C15.5651 61.8917 15.4865 61.6893 15.5042 61.4757C15.5154 61.2332 15.6565 60.9794 15.8875 60.7931C16.0286 60.6919 16.1794 60.6068 16.3494 60.5506C16.4231 60.5217 16.5017 60.5056 16.5915 60.4879C16.6925 60.4654 16.8048 60.4542 16.9347 60.4542H35.8089C36.096 60.4542 36.3269 60.2293 36.3269 59.9531C36.3269 59.672 36.096 59.4455 35.8089 59.4455L11.6841 59.4568C11.2559 59.4568 10.863 59.3042 10.6209 59.0456C10.4525 58.8593 10.3675 58.6617 10.3787 58.4658C10.406 57.9807 10.8967 57.547 11.4933 57.4346L35.6742 57.4234C35.9501 57.4234 36.1698 57.2033 36.1698 56.9335C36.1698 56.6524 35.9501 56.4324 35.6742 56.4324H9.0909C8.87119 56.4324 8.6627 56.3922 8.47667 56.3135C8.37564 56.2798 8.29064 56.2348 8.22328 56.1898C8.1447 56.1336 8.07735 56.0822 8.02122 56.026C7.90254 55.8959 7.76783 55.6984 7.79669 55.4574C7.79669 55.3723 7.80792 55.3161 7.83679 55.2213C7.83679 55.2149 7.8432 55.1924 7.87047 55.1426C7.90414 55.0864 7.93782 55.0189 7.97791 54.974L8.02282 54.9226L8.06772 54.8776C8.11904 54.815 8.17517 54.77 8.26498 54.7138C8.28262 54.7025 8.29866 54.6849 8.34998 54.6576C8.39007 54.6286 8.43979 54.6013 8.51356 54.5724C8.56969 54.5435 8.62582 54.521 8.7044 54.505C8.72685 54.4986 8.74931 54.4873 8.81185 54.4761C8.86317 54.4584 8.9193 54.4472 8.94656 54.4423L14.8948 54.4247L36.2403 54.4182C36.4985 54.4182 36.7247 54.2159 36.7471 53.9332L36.7535 53.8593C36.7535 53.5782 36.529 53.3518 36.2419 53.3518L15.1049 53.408L13.4498 53.4144L5.57073 53.4031C5.25479 53.4031 4.95169 53.3244 4.71594 53.1719C4.65981 53.1381 4.60849 53.0932 4.54755 53.0257C4.41765 52.8844 4.33907 52.727 4.32784 52.5358C4.32142 52.5182 4.31661 52.4908 4.32142 52.4234C4.32142 52.3945 4.32784 52.3607 4.33265 52.3334C4.33746 52.311 4.34388 52.282 4.3551 52.2371C4.36633 52.2033 4.37114 52.1857 4.37756 52.1696L4.40642 52.1134C4.43529 52.062 4.46255 52.0058 4.50265 51.956C4.53151 51.9158 4.56519 51.8773 4.6101 51.8371C4.65019 51.797 4.69509 51.752 4.75603 51.707C4.79613 51.6733 4.84584 51.6444 4.91961 51.6059C4.97093 51.5721 5.02706 51.5432 5.07678 51.5271C5.13932 51.5047 5.20668 51.4758 5.29007 51.4597C5.35262 51.442 5.41356 51.426 5.49856 51.4147C5.52743 51.4035 5.55469 51.4035 5.60601 51.4035L5.67336 51.3922C5.70704 51.3922 5.73591 51.3874 5.76959 51.3874H37.7446C38.0253 51.3874 38.245 51.1674 38.245 50.8863C38.245 50.6052 38.0253 50.3852 37.7446 50.3852H2.90534C2.48356 50.3852 2.08423 50.2326 1.83565 49.974C1.79556 49.9338 1.76188 49.8889 1.73462 49.8391C1.69453 49.7877 1.67849 49.7539 1.65604 49.6929C1.64481 49.6752 1.6384 49.6528 1.63358 49.6367L1.64 49.6303L1.61113 49.5098C1.59991 49.4761 1.59991 49.4472 1.59991 49.3974C1.59991 49.3524 1.60632 49.3123 1.61755 49.2512C1.62396 49.2287 1.62877 49.2111 1.64641 49.1613C1.65764 49.1211 1.68009 49.0761 1.70254 49.0312L1.75386 48.9525C1.83245 48.8288 1.9399 48.7212 2.10348 48.62C2.11951 48.6023 2.13715 48.5911 2.18206 48.5686C2.22215 48.5461 2.26064 48.5236 2.32319 48.4899C2.36809 48.4674 2.42422 48.4497 2.51403 48.4224C2.53648 48.4112 2.55412 48.4048 2.60384 48.3999C2.65516 48.3823 2.71129 48.371 2.77864 48.3598C2.85241 48.3421 2.94222 48.3373 3.05929 48.3373H41.4156C41.855 48.3373 42.2367 48.4835 42.49 48.7437C42.6536 48.9123 42.7322 49.1099 42.721 49.3235C42.7098 49.5708 42.5863 49.8134 42.3938 49.9884C40.1999 51.5609 38.8881 54.1195 38.8881 56.8307C38.8881 59.9531 40.6329 62.8056 43.4346 64.2753L43.5309 64.3267V68.485ZM43.5309 63.1766C41.2905 61.8291 39.9064 59.4118 39.9064 56.8307C39.9064 54.4472 41.0547 52.1921 42.984 50.806L43.0738 50.7433V50.7257C43.2646 50.5506 43.417 50.353 43.5293 50.1346V63.1766H43.5309ZM47.4856 9.1662C47.4856 9.04253 47.5081 8.91243 47.5594 8.80482L49.7886 3.75986L51.9264 8.80482C51.9777 8.91243 52.0001 9.02968 52.0001 9.15496V36.7826C51.8815 36.9239 51.41 37.3014 49.8736 37.3014C48.0902 37.3014 47.5947 36.9062 47.4873 36.8002V9.1662H47.4856ZM54.9654 76.095C54.9317 76.4387 54.9317 77.0539 54.9317 78.2537C54.943 79.5611 54.943 81.2797 54.9542 83.016V84.2495C54.9606 85.2309 54.9654 86.1769 54.9654 87.0105V89.3668H44.5428C44.5428 89.023 44.5428 88.5219 44.5492 87.9132C44.5492 87.5695 44.5556 87.1743 44.5556 86.7519C44.5556 86.4644 44.5621 86.1721 44.5621 85.8621C44.5685 85.6083 44.5685 85.3546 44.5685 85.0895C44.5685 84.8245 44.5733 84.5595 44.5733 84.2897V84.0086C44.5733 83.6809 44.5797 83.3484 44.5797 83.016C44.5797 81.2797 44.5909 79.5611 44.5909 78.2537C44.5909 76.7551 44.5909 76.1512 44.5236 75.8862V42.2387C44.5236 42.0187 44.5685 41.8099 44.6647 41.6364L46.6228 37.7302C46.6742 37.6451 46.7351 37.584 46.8137 37.5551C47.2018 37.9165 48.0405 38.2875 49.8752 38.2875C51.4966 38.2875 52.2888 37.8924 52.6544 37.5551C52.733 37.584 52.8068 37.6451 52.8517 37.7302L54.8275 41.6364C54.9237 41.8115 54.9686 42.0203 54.9686 42.2387V76.095H54.9654ZM57.4079 83.4946L57.4977 83.7645L61.2119 94.7892L59.597 95.4156L58.2579 93.3356V93.3292L57.7848 92.5903L56.8113 91.0805L56.6541 90.8268L55.979 89.7844C55.9677 88.917 55.9677 87.9806 55.9565 87.0121V79.1885L57.4079 83.4946ZM55.9565 50.2422C56.064 50.4446 56.2099 50.6373 56.4007 50.806L56.4857 50.8847C58.3701 52.3045 59.451 54.4696 59.451 56.8307C59.451 59.3443 58.1119 61.7343 55.9565 63.0867V50.2422ZM60.4357 71.5512H55.9565V69.5065L60.8078 69.513L60.8976 69.5419C61.4942 69.6431 61.916 70.0494 61.8935 70.512C61.8646 71.0838 61.2119 71.5512 60.4357 71.5512ZM97.6613 49.4022L97.6325 49.5098L97.6389 49.5211C97.6389 49.5323 97.6325 49.5435 97.6277 49.5612C97.6213 49.5724 97.6164 49.6014 97.594 49.6399C97.5715 49.6961 97.5378 49.7523 97.4817 49.815C97.4705 49.8326 97.448 49.8664 97.4031 49.9114C97.3518 49.974 97.2845 50.0302 97.1834 50.0977C97.1497 50.1202 97.1209 50.1426 97.0872 50.1603C97.0199 50.2005 96.9461 50.2342 96.8515 50.2727C96.8114 50.2904 96.7729 50.3016 96.7055 50.3177L96.5756 50.3466C96.5131 50.3643 96.4457 50.3691 96.396 50.3755L96.2164 50.3868L61.7203 50.3016C61.4445 50.3016 61.2247 50.5217 61.2247 50.8028C61.2247 51.0903 61.4445 51.3216 61.7203 51.3216H94.2422C94.3048 51.3553 94.3609 51.3778 94.4282 51.389L94.5357 51.4179C94.5694 51.4292 94.6095 51.4356 94.6479 51.4517C94.7217 51.4741 94.7891 51.5031 94.8677 51.5416C94.9077 51.5593 94.9414 51.5818 94.9863 51.6091C95.0489 51.6492 95.105 51.6942 95.1499 51.7392C95.2349 51.8243 95.3023 51.9142 95.3472 52.0042C95.3985 52.1118 95.4209 52.2066 95.4209 52.3077V52.3527C95.4145 52.4154 95.4033 52.4764 95.3921 52.5278C95.3408 52.6964 95.2397 52.8667 95.105 52.9904C94.8292 53.2217 94.4347 53.3566 94.0193 53.3566H63.2326C63.0867 53.3566 62.9455 53.424 62.8445 53.5477C62.7595 53.6489 62.7258 53.7565 62.7258 53.8866C62.7258 54.1629 62.9455 54.3829 63.2214 54.3829H90.8006C90.8519 54.3829 90.9129 54.3829 90.9642 54.3877L91.1839 54.4439C91.2465 54.4664 91.3074 54.4841 91.3699 54.5066L91.41 54.5243C91.4549 54.5467 91.5062 54.5644 91.5784 54.6094C91.6121 54.6319 91.641 54.6495 91.6859 54.6833C91.7196 54.7122 91.7532 54.7395 91.7933 54.7796C91.8045 54.7861 91.8222 54.8134 91.8382 54.831C91.8655 54.8648 91.8944 54.9049 91.9232 54.9386C92.0194 55.0736 92.0644 55.2261 92.0467 55.39C92.0403 55.5313 91.9954 55.6662 91.9168 55.7963C91.8879 55.8413 91.8655 55.8815 91.827 55.9264C91.8094 55.9441 91.7981 55.9553 91.7709 55.9826C91.7484 56.0051 91.726 56.0276 91.6923 56.0613C91.6362 56.1063 91.5736 56.1513 91.5351 56.1802L91.479 56.2091C91.4405 56.2316 91.4052 56.2493 91.3715 56.2653C91.3154 56.2942 91.2529 56.3167 91.2031 56.3328L91.0348 56.389C90.9834 56.4002 90.9337 56.4067 90.8712 56.4179L90.8664 56.4115L90.799 56.4227C90.7365 56.434 90.6691 56.4404 90.6082 56.4404H63.7939C63.5181 56.4404 63.2936 56.6653 63.2936 56.9415C63.2936 57.2226 63.5133 57.4426 63.7939 57.4426L88.0598 57.4362C88.6564 57.5487 89.0734 57.9598 89.0558 58.4112C89.0221 58.9797 88.3517 59.4648 87.5932 59.4648L63.7153 59.4311C63.4283 59.4311 63.1973 59.6559 63.1973 59.9322C63.1973 60.2133 63.4283 60.4397 63.7153 60.4397H82.2351C82.2576 60.4462 82.2865 60.4574 82.3314 60.4735C82.3763 60.4799 82.4212 60.4911 82.5062 60.5072C82.5286 60.5136 82.5575 60.5249 82.6296 60.5522L82.7419 60.6036C82.782 60.6212 82.8093 60.6373 82.8493 60.6598C82.8878 60.6823 82.9231 60.7048 82.968 60.7449C82.9953 60.7674 83.0242 60.7899 83.053 60.8188L83.1204 60.8814C83.1476 60.9152 83.1717 60.9489 83.1942 60.9826L83.2278 61.0388C83.2567 61.0902 83.284 61.1513 83.3016 61.23C83.308 61.2476 83.3128 61.2701 83.3128 61.2974C83.3192 61.3264 83.3241 61.3601 83.3241 61.3938V61.4388C83.3064 61.9126 82.8574 62.3286 82.2768 62.4539H82.1694C82.1405 62.4539 82.1133 62.4587 82.0507 62.4651L62.535 62.4137C62.2543 62.4137 62.0282 62.6386 62.0282 62.9213C62.0282 63.1461 62.1693 63.3437 62.3714 63.4063C62.4564 63.4513 62.535 63.469 62.6136 63.469H75.9614C75.9902 63.4866 76.0239 63.4915 76.0512 63.4915C76.6638 63.6039 77.0808 64.0102 77.0647 64.4664C77.0423 64.8214 76.7728 65.1603 76.3607 65.3514C76.1298 65.4365 75.9052 65.4815 75.6855 65.4815H64.3231L60.1984 65.4638C59.9177 65.4638 59.6868 65.6887 59.6868 65.9714C59.6868 66.2139 59.8552 66.4163 60.0973 66.4677C60.1486 66.4853 60.1936 66.4853 60.2385 66.4853L67.4312 66.503C67.4937 66.503 67.5659 66.503 67.6172 66.5094L67.6797 66.5271C68.2875 66.6235 68.7093 67.0282 68.6757 67.502C68.6757 67.5422 68.6756 67.5647 68.6692 67.5807C68.5506 68.0995 67.8978 68.4995 67.1954 68.4995H55.9581V64.2721L56.0592 64.2158C58.7775 62.7221 60.4662 59.8937 60.4662 56.8435C60.4662 54.1548 59.2393 51.6974 57.0839 50.08C56.8706 49.9001 56.7568 49.6624 56.768 49.3974C56.8017 48.8224 57.4544 48.3485 58.2258 48.3485H96.3687C96.8082 48.3485 97.1963 48.4947 97.4272 48.7485C97.4721 48.7999 97.5122 48.8497 97.5459 48.8898C97.5635 48.9236 97.5796 48.9525 97.5972 48.9798V49.0247L97.6245 49.0537C97.6309 49.0713 97.6357 49.0874 97.6421 49.1051L97.671 49.24C97.6774 49.2689 97.6774 49.3139 97.6774 49.3588C97.6726 49.362 97.6726 49.3733 97.6613 49.4022Z" fill="black"/>
<path d="M97.6612 49.4018L97.6323 49.5095L97.6387 49.5207C97.6387 49.532 97.6323 49.5432 97.6275 49.5609C97.6211 49.5721 97.6163 49.601 97.5938 49.6396C97.5714 49.6958 97.5377 49.752 97.4815 49.8146C97.4703 49.8323 97.4479 49.866 97.403 49.911C97.3516 49.9736 97.2843 50.0299 97.1833 50.0973C97.1496 50.1198 97.1207 50.1423 97.087 50.16C97.0197 50.2001 96.9459 50.2338 96.8513 50.2724C96.8112 50.2901 96.7727 50.3013 96.7053 50.3174L96.5754 50.3463C96.5129 50.3639 96.4455 50.3688 96.3958 50.3752L96.2162 50.3864L61.7201 50.3013C61.4443 50.3013 61.2246 50.5213 61.2246 50.8024C61.2246 51.0899 61.4443 51.3212 61.7201 51.3212H94.242C94.3046 51.3549 94.3607 51.3774 94.4281 51.3887L94.5355 51.4176C94.5692 51.4288 94.6093 51.4353 94.6478 51.4513C94.7215 51.4738 94.7889 51.5027 94.8675 51.5413C94.9076 51.5589 94.9412 51.5814 94.9862 51.6087C95.0487 51.6489 95.1048 51.6938 95.1497 51.7388C95.2347 51.8239 95.3021 51.9139 95.347 52.0038C95.3983 52.1114 95.4208 52.2062 95.4208 52.3074V52.3524C95.4143 52.415 95.4031 52.476 95.3919 52.5274C95.3406 52.6961 95.2395 52.8663 95.1048 52.99C94.829 53.2213 94.4345 53.3562 94.0191 53.3562H63.2324C63.0865 53.3562 62.9454 53.4237 62.8443 53.5474C62.7593 53.6486 62.7257 53.7562 62.7257 53.8863C62.7257 54.1625 62.9454 54.3826 63.2212 54.3826H90.8004C90.8518 54.3826 90.9127 54.3826 90.964 54.3874L91.1837 54.4436C91.2463 54.4661 91.3072 54.4838 91.3698 54.5062L91.4099 54.5239C91.4548 54.5464 91.5061 54.5641 91.5782 54.609C91.6119 54.6315 91.6408 54.6492 91.6857 54.6829C91.7194 54.7118 91.7531 54.7391 91.7931 54.7793C91.8044 54.7857 91.822 54.813 91.838 54.8307C91.8653 54.8644 91.8942 54.9046 91.923 54.9383C92.0193 55.0732 92.0642 55.2258 92.0465 55.3896C92.0401 55.531 91.9952 55.6659 91.9166 55.796C91.8878 55.841 91.8653 55.8811 91.8268 55.9261C91.8092 55.9438 91.798 55.955 91.7707 55.9823C91.7482 56.0048 91.7258 56.0273 91.6921 56.061C91.636 56.106 91.5734 56.151 91.5349 56.1799L91.4788 56.2088C91.4403 56.2313 91.405 56.2489 91.3714 56.265C91.3152 56.2939 91.2527 56.3164 91.203 56.3324L91.0346 56.3887C90.9833 56.3999 90.9335 56.4063 90.871 56.4176L90.8662 56.4111L90.7988 56.4224C90.7363 56.4336 90.6689 56.4401 90.608 56.4401H63.7937C63.5179 56.4401 63.2934 56.6649 63.2934 56.9412C63.2934 57.2223 63.5131 57.4423 63.7937 57.4423L88.0597 57.4359C88.6563 57.5483 89.0732 57.9595 89.0556 58.4108C89.0219 58.9794 88.3516 59.4645 87.593 59.4645L63.7152 59.4307C63.4281 59.4307 63.1972 59.6556 63.1972 59.9319C63.1972 60.2129 63.4281 60.4394 63.7152 60.4394H82.235C82.2574 60.4458 82.2863 60.4571 82.3312 60.4731C82.3761 60.4796 82.421 60.4908 82.506 60.5069C82.5284 60.5133 82.5573 60.5245 82.6295 60.5518L82.7417 60.6032C82.7818 60.6209 82.8091 60.637 82.8492 60.6595C82.8877 60.6819 82.9229 60.7044 82.9678 60.7446C82.9951 60.7671 83.024 60.7896 83.0529 60.8185L83.1202 60.8811C83.1475 60.9148 83.1715 60.9486 83.194 60.9823L83.2277 61.0385C83.2565 61.0899 83.2838 61.1509 83.3014 61.2296C83.3078 61.2473 83.3127 61.2698 83.3127 61.2971C83.3191 61.326 83.3239 61.3597 83.3239 61.3935V61.4384C83.3062 61.9123 82.8572 62.3283 82.2766 62.4535H82.1692C82.1403 62.4535 82.1131 62.4584 82.0505 62.4648L62.5348 62.4134C62.2542 62.4134 62.028 62.6382 62.028 62.9209C62.028 63.1458 62.1692 63.3434 62.3712 63.406C62.4562 63.451 62.5348 63.4686 62.6134 63.4686H75.9612C75.9901 63.4863 76.0237 63.4911 76.051 63.4911C76.6636 63.6035 77.0806 64.0099 77.0646 64.4661C77.0421 64.821 76.7727 65.1599 76.3605 65.3511C76.1296 65.4362 75.9051 65.4812 75.6853 65.4812H64.323L60.1982 65.4635C59.9175 65.4635 59.6866 65.6884 59.6866 65.971C59.6866 66.2136 59.855 66.4159 60.0972 66.4673C60.1485 66.485 60.1934 66.485 60.2383 66.485L67.431 66.5027C67.4935 66.5027 67.5657 66.5027 67.617 66.5091L67.6796 66.5268C68.2874 66.6231 68.7092 67.0279 68.6755 67.5017C68.6755 67.5419 68.6755 67.5644 68.6691 67.5804C68.5504 68.0992 67.8977 68.4991 67.1952 68.4991H55.9579V64.2717L56.059 64.2155C58.7773 62.7218 60.466 59.8933 60.466 56.8432C60.466 54.1545 59.2392 51.6971 57.0838 50.0796C56.8705 49.8998 56.7566 49.662 56.7678 49.397C56.8015 48.822 57.4542 48.3482 58.2256 48.3482H96.3686C96.808 48.3482 97.1961 48.4944 97.427 48.7481C97.4719 48.7995 97.512 48.8493 97.5457 48.8895C97.5633 48.9232 97.5794 48.9521 97.597 48.9794V49.0244L97.6243 49.0533C97.6307 49.071 97.6355 49.087 97.6419 49.1047L97.6708 49.2396C97.6772 49.2685 97.6772 49.3135 97.6772 49.3585C97.6724 49.3617 97.6724 49.3729 97.6612 49.4018Z" fill="white"/>
<path d="M61.8934 70.5087C61.8646 71.0837 61.2119 71.5511 60.4357 71.5511H55.9565V69.5064L60.8077 69.5128L60.8975 69.5417C61.4925 69.6413 61.9159 70.0461 61.8934 70.5087Z" fill="white"/>
<path d="M43.5307 69.5064V71.5527H38.888C38.4662 71.5527 38.0669 71.4001 37.8135 71.1463C37.6499 70.9777 37.5713 70.7737 37.5825 70.5552C37.605 70.0766 38.1005 69.6429 38.7468 69.5353C38.7757 69.5289 38.803 69.5177 38.8318 69.5064H43.5307Z" fill="white"/>
<path d="M43.5305 64.3258V68.4858H30.5307C30.0913 68.4858 29.7096 68.3396 29.4723 68.0859C29.3263 67.922 29.2525 67.7245 29.2702 67.5285C29.3103 66.96 29.9855 66.491 30.7665 66.491H39.2421C39.518 66.491 39.7537 66.2548 39.7537 65.9673C39.7537 65.6975 39.518 65.471 39.2357 65.471L23.0285 65.5048C22.6067 65.5048 22.2074 65.3522 21.9588 65.0984C21.7952 64.9233 21.7118 64.7145 21.7231 64.5009C21.7407 64.0608 22.1737 63.6448 22.7078 63.5147H36.9055C37.1862 63.5147 37.4123 63.2899 37.4123 63.0024C37.4123 62.7261 37.1878 62.5012 36.9055 62.5012L16.798 62.4788C16.365 62.4788 15.9769 62.3262 15.7283 62.0563C15.5648 61.8925 15.4862 61.6901 15.5038 61.4765C15.5151 61.234 15.6562 60.9802 15.8871 60.7939C16.0282 60.6927 16.179 60.6076 16.349 60.5514C16.4228 60.5224 16.5013 60.5064 16.5912 60.4887C16.6922 60.4662 16.8044 60.455 16.9344 60.455H35.8086C36.0956 60.455 36.3266 60.2301 36.3266 59.9539C36.3266 59.6728 36.0956 59.4463 35.8086 59.4463L11.6838 59.4576C11.2556 59.4576 10.8627 59.305 10.6205 59.0464C10.4521 58.8601 10.3671 58.6625 10.3783 58.4666C10.4056 57.9815 10.8963 57.5478 11.4929 57.4354L35.6739 57.4242C35.9497 57.4242 36.1694 57.2041 36.1694 56.9343C36.1694 56.6532 35.9497 56.4332 35.6739 56.4332H9.09054C8.87083 56.4332 8.66234 56.393 8.47631 56.3143C8.37528 56.2806 8.29028 56.2356 8.22292 56.1906C8.14434 56.1344 8.07699 56.083 8.02086 56.0268C7.90218 55.8967 7.76747 55.6991 7.79633 55.4582C7.79633 55.3731 7.80756 55.3169 7.83643 55.2221C7.83643 55.2157 7.84284 55.1932 7.87011 55.1434C7.90378 55.0872 7.93746 55.0197 7.97756 54.9748L8.02246 54.9234L8.06736 54.8784C8.11868 54.8157 8.17481 54.7708 8.26462 54.7146C8.28226 54.7033 8.2983 54.6856 8.34962 54.6583C8.38971 54.6294 8.43943 54.6021 8.5132 54.5732C8.56933 54.5443 8.62546 54.5218 8.70404 54.5058C8.72649 54.4993 8.74895 54.4881 8.81149 54.4768C8.86281 54.4592 8.91894 54.4479 8.9462 54.4431L14.8944 54.4254L36.24 54.419C36.4982 54.419 36.7243 54.2166 36.7467 53.934L36.7532 53.8601C36.7532 53.579 36.5286 53.3525 36.2416 53.3525L15.1045 53.4087L13.4495 53.4152L5.57037 53.4039C5.25443 53.4039 4.95133 53.3252 4.71558 53.1726C4.65945 53.1389 4.60813 53.0939 4.54719 53.0265C4.41729 52.8851 4.33871 52.7277 4.32748 52.5366C4.32107 52.5189 4.31626 52.4916 4.32107 52.4242C4.32107 52.3953 4.32748 52.3615 4.33229 52.3342C4.3371 52.3117 4.34352 52.2828 4.35474 52.2379C4.36597 52.2041 4.37078 52.1865 4.3772 52.1704L4.40606 52.1142C4.43493 52.0628 4.46219 52.0066 4.50229 51.9568C4.53115 51.9166 4.56483 51.8781 4.60974 51.8379C4.64983 51.7978 4.69473 51.7528 4.75568 51.7078C4.79577 51.6741 4.84548 51.6452 4.91926 51.6066C4.97057 51.5729 5.0267 51.544 5.07642 51.5279C5.13897 51.5054 5.20632 51.4765 5.28972 51.4605C5.35226 51.4428 5.4132 51.4267 5.4982 51.4155C5.52707 51.4043 5.55433 51.4043 5.60565 51.4043L5.67301 51.393C5.70668 51.393 5.73555 51.3882 5.76923 51.3882H37.7443C38.0249 51.3882 38.2446 51.1681 38.2446 50.8871C38.2446 50.606 38.0249 50.3859 37.7443 50.3859H2.90498C2.4832 50.3859 2.08387 50.2334 1.8353 49.9748C1.7952 49.9346 1.76152 49.8896 1.73426 49.8399C1.69417 49.7885 1.67813 49.7547 1.65568 49.6937C1.64445 49.676 1.63804 49.6535 1.63323 49.6375L1.63964 49.6311L1.61077 49.509C1.59955 49.4753 1.59955 49.4463 1.59955 49.3966C1.59955 49.3516 1.60596 49.3114 1.61719 49.2504C1.6236 49.2279 1.62842 49.2102 1.64606 49.1604C1.65728 49.1203 1.67973 49.0753 1.70219 49.0303L1.75351 48.9516C1.83209 48.828 1.93954 48.7204 2.10312 48.6192C2.11915 48.6015 2.1368 48.5903 2.1817 48.5678C2.22179 48.5453 2.26028 48.5228 2.32283 48.4891C2.36773 48.4666 2.42386 48.4489 2.51367 48.4216C2.53612 48.4104 2.55376 48.4039 2.60348 48.3991C2.6548 48.3815 2.71093 48.3702 2.77828 48.359C2.85206 48.3413 2.94186 48.3365 3.05894 48.3365H41.4152C41.8546 48.3365 42.2363 48.4826 42.4897 48.7428C42.6533 48.9115 42.7318 49.109 42.7206 49.3227C42.7094 49.57 42.5859 49.8126 42.3935 49.9876C40.1996 51.5601 38.8877 54.1187 38.8877 56.8299C38.8877 59.9523 40.6326 62.8048 43.4343 64.2744L43.5305 64.3258Z" fill="white"/>
<path d="M61.2119 94.7897L59.5969 95.4161L58.2578 93.3361V93.3297L57.7847 92.5908L56.8113 91.0811L56.6541 90.8273L55.9789 89.7849C55.9677 88.9176 55.9677 87.9812 55.9565 87.0126V79.189L57.4078 83.4952L57.4977 83.765L61.2119 94.7897Z" fill="white"/>
<path d="M43.5308 79.3012V89.8184L42.8492 90.872L42.692 91.121L40.7563 94.1181L40.2608 94.8906V94.8971L39.9224 95.4142L38.3074 94.7894L42.0056 83.8161L42.0954 83.5511L43.5308 79.3012Z" fill="white"/>
<path d="M54.9654 76.0951C54.9317 76.4388 54.9317 77.0539 54.9317 78.2537C54.9429 79.5612 54.9429 81.2798 54.9542 83.016V84.2496C54.9606 85.2309 54.9654 86.177 54.9654 87.0106V89.3668H44.5428C44.5428 89.0231 44.5428 88.522 44.5492 87.9132C44.5492 87.5695 44.5556 87.1744 44.5556 86.752C44.5556 86.4645 44.562 86.1721 44.562 85.8622C44.5684 85.6084 44.5684 85.3546 44.5684 85.0896C44.5684 84.8246 44.5733 84.5595 44.5733 84.2897V84.0086C44.5733 83.681 44.5797 83.3485 44.5797 83.016C44.5797 81.2798 44.5909 79.5612 44.5909 78.2537C44.5909 76.7552 44.5909 76.1513 44.5235 75.8863V42.2387C44.5235 42.0187 44.5684 41.8099 44.6647 41.6364L46.6228 37.7302C46.6741 37.6451 46.7351 37.5841 46.8137 37.5552C47.2018 37.9166 48.0405 38.2876 49.8752 38.2876C51.4965 38.2876 52.2888 37.8925 52.6544 37.5552C52.733 37.5841 52.8068 37.6451 52.8517 37.7302L54.8275 41.6364C54.9237 41.8115 54.9686 42.0203 54.9686 42.2387V76.0951H54.9654Z" fill="white"/>
<path d="M52 9.1545V36.7821C51.8813 36.9235 51.4098 37.3009 49.8735 37.3009C48.0901 37.3009 47.5946 36.9058 47.4871 36.7998V9.16574C47.4871 9.04207 47.5096 8.91197 47.5609 8.80436L49.7901 3.7594L51.9278 8.80436C51.9776 8.91197 52 9.03083 52 9.1545Z" fill="white"/>
</svg>
